<?xml version="1.0" ?><!DOCTYPE svg  PUBLIC '-//W3C//DTD SVG 1.1//EN'  'http://www.w3.org/Graphics/SVG/1.1/DTD/svg11.dtd'><svg height="100%" style="fill-rule:evenodd;clip-rule:evenodd;stroke-linejoin:round;stroke-miterlimit:2;" version="1.1" viewBox="0 0 128 128" width="100%" xml:space="preserve" xmlns="http://www.w3.org/2000/svg" xmlns:serif="http://www.serif.com/" xmlns:xlink="http://www.w3.org/1999/xlink"><g id="Card"/><path d="M85,59l-0,-2l-54,-0l-0,2c-0,-0 3.97,39.042 5.452,53.607c0.311,3.063 2.89,5.393 5.969,5.393c8.056,-0 23.102,-0 31.158,-0c3.079,-0 5.658,-2.33 5.969,-5.393c1.482,-14.565 5.452,-53.607 5.452,-53.607Z" style="fill:#767576;"/><path d="M82.797,59l-51.797,0l0.186,1.827c0.249,0.111 0.524,0.173 0.814,0.173l50.593,-0l-5.045,49.607c-0.311,3.063 -2.89,5.393 -5.969,5.393c-8.056,-0 -23.102,-0 -31.158,0c-1.14,-0 -2.211,-0.319 -3.124,-0.877c1.058,1.735 2.969,2.877 5.124,2.877c8.056,-0 23.102,-0 31.158,-0c3.079,-0 5.658,-2.33 5.969,-5.393l5.452,-53.607l-0,-2l-2,-0l-0.203,2Z" style="fill:#616262;"/><path d="M31.182,50.277c-0.121,0.48 -0.182,0.973 -0.182,1.468c-0,0.569 -0,1.255 -0,1.255l54,-0l-0,-1.255c0,-0.495 -0.061,-0.988 -0.182,-1.468c-0.888,-3.517 -4.714,-18.677 -4.714,-18.677c-0.648,-2.698 -3.06,-4.6 -5.834,-4.6c-8.082,-0 -24.458,-0 -32.54,-0c-2.774,-0 -5.186,1.902 -5.834,4.6c0,-0 -3.826,15.16 -4.714,18.677Z" style="fill:#767576;"/><path d="M32.5,51l-1.453,0c-0.031,0.247 -0.047,0.496 -0.047,0.745c-0,0.569 -0,1.255 -0,1.255l54,0l-0,-1.255c0,-0.495 -0.061,-0.988 -0.182,-1.468c-0.888,-3.517 -4.714,-18.677 -4.714,-18.677c-0.383,-1.596 -1.383,-2.913 -2.71,-3.723c0.319,0.523 0.561,1.102 0.71,1.723c-0,-0 3.826,15.16 4.714,18.677c0.121,0.48 0.182,0.973 0.182,1.468l-0,1.255l-48,-0l4.243,-16.97c0.445,-1.781 2.045,-3.03 3.88,-3.03c6.813,-0 22.941,-0 29.754,0c0.582,-0 1.141,0.126 1.646,0.354c-0.637,-1.413 -2.053,-2.354 -3.646,-2.354c-6.813,-0 -22.941,-0 -29.754,-0c-1.835,-0 -3.435,1.249 -3.88,3.03c-1.399,5.592 -4.743,18.97 -4.743,18.97Z" style="fill:#616262;"/><path d="M76.757,34.03c-0.445,-1.781 -2.045,-3.03 -3.88,-3.03c-6.813,0 -22.941,-0 -29.754,0c-1.835,-0 -3.435,1.249 -3.88,3.03c-1.399,5.592 -4.243,16.97 -4.243,16.97l-0,2l46,0l-0,-2c-0,0 -2.844,-11.378 -4.243,-16.97Z" style="fill:#424243;"/><path d="M37,53l4.243,-16.97c0.445,-1.781 2.045,-3.03 3.88,-3.03c6.813,-0 22.941,0 29.754,0c0.582,-0 1.141,0.126 1.646,0.354c-0.637,-1.413 -2.053,-2.354 -3.646,-2.354c-6.813,0 -22.941,-0 -29.754,0c-1.835,-0 -3.435,1.249 -3.88,3.03c-1.399,5.592 -4.243,16.97 -4.243,16.97l-0,2l2,0Z" style="fill:#202020;"/><path d="M45.193,95.828c2.972,4.869 8.43,7.557 13.962,7.127c1.1,-0.085 1.924,-1.048 1.839,-2.149c-0.085,-1.1 -1.048,-1.924 -2.149,-1.839c-3.881,0.302 -7.714,-1.49 -9.948,-4.773l0.292,-0.128c0.634,-0.28 1.078,-0.868 1.173,-1.555c0.096,-0.686 -0.171,-1.373 -0.705,-1.816l-4.305,-3.565c-0.583,-0.484 -1.39,-0.596 -2.083,-0.29c-0.693,0.306 -1.154,0.977 -1.19,1.733l-0.27,5.584c-0.033,0.692 0.294,1.353 0.865,1.745c0.572,0.393 1.306,0.461 1.94,0.181l0.579,-0.255Zm22.659,-2.926l-0.255,-0.192c-0.554,-0.416 -1.284,-0.516 -1.93,-0.263c-0.645,0.252 -1.114,0.821 -1.239,1.503l-1.005,5.499c-0.136,0.745 0.16,1.503 0.766,1.958c0.605,0.455 1.416,0.529 2.094,0.191l5.002,-2.495c0.621,-0.309 1.036,-0.918 1.099,-1.608c0.063,-0.691 -0.236,-1.364 -0.79,-1.781l-0.505,-0.38c3.056,-5.441 2.379,-12.201 -1.552,-16.924c-0.706,-0.849 -1.968,-0.964 -2.816,-0.258c-0.849,0.706 -0.964,1.968 -0.258,2.816c2.768,3.327 3.334,8.032 1.389,11.934Zm-11.852,-19.77c-4.925,0.658 -9.097,3.708 -11.307,7.943c-0.51,0.979 -0.13,2.188 0.848,2.698c0.979,0.511 2.188,0.131 2.699,-0.848c1.54,-2.953 4.381,-5.121 7.76,-5.743l0,0.318c0,0.693 0.359,1.337 0.949,1.701c0.589,0.365 1.325,0.398 1.945,0.088l5,-2.5c0.678,-0.339 1.106,-1.031 1.106,-1.789c0,-0.758 -0.428,-1.45 -1.106,-1.789l-5,-2.5c-0.62,-0.31 -1.356,-0.277 -1.945,0.088c-0.59,0.364 -0.949,1.008 -0.949,1.701l0,0.632Z" style="fill:#66bc6a;"/><path d="M46.421,97.553c3.112,3.768 7.895,5.778 12.734,5.402c1.1,-0.085 1.924,-1.048 1.839,-2.149c-0.081,-1.048 -0.959,-1.846 -1.994,-1.845c0.001,1.035 -0.797,1.913 -1.845,1.994c-3.895,0.303 -7.753,-0.94 -10.734,-3.402Zm22.119,-19.789c3.021,4.603 3.323,10.63 0.549,15.57l0.505,0.38c0.554,0.417 0.853,1.09 0.79,1.781c-0.063,0.69 -0.478,1.299 -1.099,1.608l-5.002,2.495c-0.283,0.141 -0.588,0.21 -0.893,0.21c0,0.622 0.291,1.217 0.799,1.599c0.605,0.455 1.416,0.529 2.094,0.191l5.002,-2.495c0.621,-0.309 1.036,-0.918 1.099,-1.608c0.063,-0.691 -0.236,-1.364 -0.79,-1.781l-0.505,-0.38c3.056,-5.441 2.379,-12.201 -1.552,-16.924c-0.269,-0.324 -0.62,-0.541 -0.997,-0.646Zm-26.733,16.489c-0,0.657 0.323,1.275 0.867,1.649c0.572,0.393 1.306,0.461 1.94,0.181l0.579,-0.255c-0.596,-0.665 -1.136,-1.39 -1.613,-2.171l-0.966,0.426c-0.259,0.114 -0.534,0.171 -0.807,0.17Zm6.447,-4.72c0.115,0.307 0.155,0.643 0.108,0.978c-0.095,0.687 -0.539,1.275 -1.173,1.555l-0.292,0.128c0.664,0.975 1.468,1.819 2.373,2.515c-0.129,-0.167 -0.253,-0.339 -0.373,-0.515l0.292,-0.128c0.634,-0.28 1.078,-0.868 1.173,-1.555c0.096,-0.686 -0.171,-1.373 -0.705,-1.816l-1.403,-1.162Zm-3.787,-7.533c0,0.721 0.392,1.417 1.074,1.773c0.979,0.511 2.188,0.131 2.699,-0.848c1.423,-2.729 4.208,-5.103 7.76,-5.743l0,-2.653c-4.457,0.82 -7.996,3.015 -9.76,6.396c-0.357,0.683 -1.053,1.074 -1.773,1.075Zm18.518,-9.243c0.01,0.08 0.015,0.161 0.015,0.243c-0,0.758 -0.428,1.45 -1.106,1.789l-5,2.5c-0.282,0.141 -0.588,0.211 -0.894,0.211l0,0c0,0.693 0.359,1.337 0.949,1.701c0.589,0.365 1.325,0.398 1.945,0.088l5,-2.5c0.678,-0.339 1.106,-1.031 1.106,-1.789c0,-0.758 -0.428,-1.45 -1.106,-1.789l-0.909,-0.454Z" style="fill:#42a147;"/><path d="M88,53c-0,-1.105 -0.895,-2 -2,-2c-9.138,0 -46.862,0 -56,0c-1.105,0 -2,0.895 -2,2c0,1.222 0,2.778 0,4c0,1.105 0.895,2 2,2c9.138,0 46.862,0 56,0c1.105,-0 2,-0.895 2,-2c0,-1.222 0,-2.778 0,-4Z" style="fill:#bdbdbd;"/><path d="M86,51l0,4c-0,1.105 -0.895,2 -2,2l-56,-0l0,0c0,1.105 0.895,2 2,2c9.138,0 46.862,0 56,0c1.105,-0 2,-0.895 2,-2c0,-1.222 0,-2.778 0,-4c-0,-1.105 -0.895,-2 -2,-2l0,0Z" style="fill:#767576;"/><circle cx="82" cy="28" r="18" style="fill:#41b3e6;"/><path d="M93.686,14.314c3.864,3.302 6.314,8.21 6.314,13.686c0,9.934 -8.066,18 -18,18c-5.476,0 -10.384,-2.45 -13.686,-6.314c3.145,2.689 7.227,4.314 11.686,4.314c9.934,0 18,-8.066 18,-18c0,-4.459 -1.625,-8.541 -4.314,-11.686Zm-9.736,20.37c0.14,0.286 0.219,0.609 0.219,0.95c-0,1.197 -0.972,2.168 -2.169,2.168c-0.341,0 -0.663,-0.078 -0.95,-0.218c0.352,0.721 1.094,1.218 1.95,1.218c1.197,0 2.169,-0.971 2.169,-2.168c-0,-0.857 -0.497,-1.598 -1.219,-1.95Zm4.893,-5.732c0.097,0.113 0.191,0.229 0.282,0.346c0.675,0.874 0.514,2.131 -0.36,2.806c-0.673,0.52 -1.574,0.543 -2.261,0.127c0.164,0.16 0.316,0.332 0.456,0.513c0.675,0.873 1.932,1.035 2.805,0.36c0.874,-0.675 1.035,-1.932 0.36,-2.806c-0.38,-0.491 -0.81,-0.943 -1.282,-1.346Zm-13.208,3.393c0.13,0.289 0.331,0.551 0.6,0.759c0.873,0.675 2.13,0.513 2.805,-0.36c0.915,-1.184 2.349,-1.949 3.96,-1.949c1.128,0 2.168,0.375 3.005,1.006c-0.015,-0.019 -0.03,-0.038 -0.045,-0.057c-0.915,-1.184 -2.349,-1.949 -3.96,-1.949c-1.611,0 -3.045,0.765 -3.96,1.949c-0.577,0.747 -1.58,0.973 -2.405,0.601Zm16.75,-9.935c0.384,0.425 0.743,0.873 1.073,1.343c0.635,0.903 0.418,2.152 -0.485,2.787c-0.627,0.44 -1.42,0.47 -2.059,0.146c0.094,0.121 0.185,0.243 0.272,0.368c0.635,0.903 1.884,1.121 2.787,0.486c0.903,-0.635 1.12,-1.884 0.485,-2.787c-0.602,-0.857 -1.298,-1.643 -2.073,-2.343Zm-21.03,4.317c0.142,0.316 0.368,0.599 0.672,0.813c0.903,0.635 2.152,0.417 2.787,-0.486c1.81,-2.574 4.803,-4.259 8.186,-4.259c2.506,0 4.797,0.924 6.552,2.449c-1.834,-2.112 -4.538,-3.449 -7.552,-3.449c-3.383,0 -6.376,1.685 -8.186,4.259c-0.561,0.798 -1.601,1.061 -2.459,0.673Z" style="fill:#2898d4;"/><path d="M82,33.465c-1.197,-0 -2.169,0.971 -2.169,2.169c0,1.197 0.972,2.168 2.169,2.168c1.197,0 2.169,-0.971 2.169,-2.168c-0,-1.198 -0.972,-2.169 -2.169,-2.169Zm-3.96,-1.721c0.915,-1.184 2.349,-1.949 3.96,-1.949c1.611,0 3.045,0.765 3.96,1.949c0.675,0.873 1.932,1.035 2.805,0.36c0.874,-0.675 1.035,-1.932 0.36,-2.806c-1.646,-2.13 -4.227,-3.503 -7.125,-3.503c-2.898,0 -5.479,1.373 -7.125,3.503c-0.675,0.874 -0.514,2.131 0.36,2.806c0.873,0.675 2.13,0.513 2.805,-0.36Zm-4.226,-5.69c1.81,-2.574 4.803,-4.259 8.186,-4.259c3.383,0 6.376,1.685 8.186,4.259c0.635,0.903 1.884,1.121 2.787,0.486c0.903,-0.635 1.12,-1.884 0.485,-2.787c-2.533,-3.603 -6.723,-5.958 -11.458,-5.958c-4.735,0 -8.925,2.355 -11.458,5.958c-0.635,0.903 -0.418,2.152 0.485,2.787c0.903,0.635 2.152,0.417 2.787,-0.486Z" style="fill:#fff;"/><path d="M82.95,33.684c0.14,0.286 0.219,0.609 0.219,0.95c-0,1.197 -0.972,2.168 -2.169,2.168c-0.341,0 -0.663,-0.078 -0.95,-0.218c0.352,0.721 1.094,1.218 1.95,1.218c1.197,0 2.169,-0.971 2.169,-2.168c-0,-0.857 -0.497,-1.598 -1.219,-1.95Zm4.893,-5.732c0.097,0.113 0.191,0.229 0.282,0.346c0.675,0.874 0.514,2.131 -0.36,2.806c-0.673,0.52 -1.574,0.543 -2.261,0.127c0.164,0.16 0.316,0.332 0.456,0.513c0.675,0.873 1.932,1.035 2.805,0.36c0.874,-0.675 1.035,-1.932 0.36,-2.806c-0.38,-0.491 -0.81,-0.943 -1.282,-1.346Zm-13.208,3.393c0.13,0.289 0.331,0.551 0.6,0.759c0.873,0.675 2.13,0.513 2.805,-0.36c0.915,-1.184 2.349,-1.949 3.96,-1.949c1.128,0 2.168,0.375 3.005,1.006c-0.015,-0.019 -0.03,-0.038 -0.045,-0.057c-0.915,-1.184 -2.349,-1.949 -3.96,-1.949c-1.611,0 -3.045,0.765 -3.96,1.949c-0.577,0.747 -1.58,0.973 -2.405,0.601Zm16.75,-9.935c0.384,0.425 0.743,0.873 1.073,1.343c0.635,0.903 0.418,2.152 -0.485,2.787c-0.627,0.44 -1.42,0.47 -2.059,0.146c0.094,0.121 0.185,0.243 0.272,0.368c0.635,0.903 1.884,1.121 2.787,0.486c0.903,-0.635 1.12,-1.884 0.485,-2.787c-0.602,-0.857 -1.298,-1.643 -2.073,-2.343Zm-21.03,4.317c0.142,0.316 0.368,0.599 0.672,0.813c0.903,0.635 2.152,0.417 2.787,-0.486c1.81,-2.574 4.803,-4.259 8.186,-4.259c2.506,0 4.797,0.924 6.552,2.449c-1.834,-2.112 -4.538,-3.449 -7.552,-3.449c-3.383,0 -6.376,1.685 -8.186,4.259c-0.561,0.798 -1.601,1.061 -2.459,0.673Z" style="fill:#eeefef;"/></svg>